<?xml version="1.0" standalone="no"?>
<!DOCTYPE svg PUBLIC "-//W3C//DTD SVG 20010904//EN"
 "http://www.w3.org/TR/2001/REC-SVG-20010904/DTD/svg10.dtd">
<svg version="1.0" xmlns="http://www.w3.org/2000/svg"
 width="1280.000000pt" height="722.000000pt" viewBox="0 0 1280.000000 722.000000"
 preserveAspectRatio="xMidYMid meet">

<g transform="translate(0.000000,722.000000) scale(0.100000,-0.100000)"
fill="#000000" stroke="none">
<path d="M6319 5006 c-343 -296 -578 -661 -646 -1003 -25 -127 -23 -333 4
-438 80 -310 299 -506 610 -548 l83 -11 0 -105 c0 -116 8 -143 37 -125 15 9
18 28 21 121 l3 110 62 7 c264 29 482 184 584 414 50 113 67 204 66 362 -1
206 -30 328 -129 538 -68 145 -158 282 -271 413 -120 137 -319 329 -343 329
-4 0 -40 -29 -81 -64z m27 -477 c5 -9 93 -672 94 -714 0 -5 15 26 33 70 28 67
37 80 56 80 19 0 32 -18 74 -100 l52 -100 235 -5 235 -5 0 -25 0 -25 -256 -3
-256 -2 -39 80 -39 81 -13 -33 c-69 -170 -74 -178 -97 -178 -29 0 -27 -10 -66
307 -18 144 -34 261 -35 260 -2 -1 -19 -148 -39 -327 -33 -292 -43 -350 -64
-350 -24 1 -37 37 -71 210 -21 106 -41 194 -43 196 -2 2 -9 -20 -16 -50 -6
-29 -22 -84 -34 -122 l-22 -69 -180 0 -180 0 0 25 0 25 155 5 155 5 50 174
c74 254 91 256 140 14 38 -187 31 -207 80 241 20 181 38 333 41 338 8 12 42
10 50 -3z"/>
<path d="M5652 2478 l3 -203 33 -3 c37 -4 34 -20 32 181 -1 92 2 137 9 137 6
0 11 -2 11 -5 0 -8 60 -277 66 -297 4 -13 16 -18 40 -18 42 0 41 -1 79 180 15
74 32 139 36 144 5 6 9 -64 9 -157 l0 -167 35 0 35 0 0 205 0 205 -58 0 -59 0
-33 -152 c-18 -84 -35 -155 -37 -157 -7 -10 -14 11 -38 120 -14 63 -30 131
-36 152 l-10 37 -60 0 -59 0 2 -202z"/>
<path d="M6145 2571 c-26 -11 -51 -40 -59 -68 -7 -21 -4 -23 33 -23 28 0 41 4
41 14 0 28 69 36 90 11 20 -24 4 -43 -42 -50 -109 -17 -147 -51 -133 -121 11
-63 98 -88 156 -45 27 20 28 20 34 1 5 -16 15 -20 46 -20 34 0 39 3 35 18 -3
9 -8 64 -10 122 -3 58 -8 113 -11 122 -15 38 -124 61 -180 39z m115 -181 c0
-42 -33 -72 -73 -68 -25 2 -33 8 -35 27 -5 29 9 43 56 57 53 17 52 17 52 -16z"/>
<path d="M6443 2560 c-51 -31 -67 -64 -67 -140 0 -47 5 -75 17 -93 56 -86 176
-85 234 2 31 46 29 51 -15 51 -32 0 -41 -5 -50 -25 -9 -20 -19 -25 -46 -25
-47 0 -61 22 -61 92 0 51 4 63 24 79 31 25 47 24 77 -6 17 -17 36 -25 59 -25
40 0 40 -1 20 46 -25 61 -127 84 -192 44z"/>
<path d="M6781 2554 c-30 -25 -31 -25 -31 -5 0 17 -6 21 -35 21 l-35 0 0 -150
0 -150 34 0 34 0 4 94 c3 104 17 132 67 138 22 3 26 8 29 41 3 31 0 37 -17 37
-11 0 -33 -12 -50 -26z"/>
<path d="M6944 2570 c-83 -33 -111 -175 -50 -255 44 -58 151 -70 209 -24 83
65 71 231 -19 274 -34 16 -106 19 -140 5z m110 -71 c22 -17 26 -28 26 -73 0
-70 -19 -96 -70 -96 -51 0 -70 26 -70 96 0 45 4 56 26 73 15 12 34 21 44 21
10 0 29 -9 44 -21z"/>
<path d="M5700 1900 c0 -169 2 -200 15 -200 11 0 15 20 17 98 l3 97 103 3 c56
1 102 7 102 12 0 5 -46 11 -102 12 l-103 3 0 75 0 75 113 3 c158 4 144 22 -18
22 l-130 0 0 -200z"/>
<path d="M6800 2025 c0 -41 -2 -75 -5 -75 -3 0 -19 10 -34 21 -35 26 -101 28
-137 5 -41 -28 -57 -71 -52 -148 3 -60 7 -72 34 -99 41 -40 107 -45 153 -11
37 27 41 27 41 2 0 -11 7 -20 15 -20 13 0 15 29 15 200 0 171 -2 200 -15 200
-12 0 -15 -15 -15 -75z m-44 -73 c32 -27 44 -56 44 -107 0 -52 -21 -99 -49
-115 -39 -20 -91 -12 -122 19 -25 26 -29 37 -29 86 0 59 18 107 47 124 28 16
86 12 109 -7z"/>
<path d="M6025 1968 c-70 -55 -73 -183 -5 -246 49 -45 149 -34 185 22 44 67
36 176 -17 221 -40 34 -122 35 -163 3z m146 -27 c26 -27 29 -36 29 -95 0 -58
-3 -69 -28 -97 -45 -51 -125 -40 -157 21 -18 34 -20 112 -4 143 35 63 111 77
160 28z"/>
<path d="M6329 1975 c-61 -33 -80 -160 -34 -227 39 -58 119 -71 182 -31 73 48
70 218 -6 257 -37 20 -107 20 -142 1z m122 -15 c71 -39 61 -217 -14 -235 -51
-13 -90 -2 -114 34 -40 59 -26 171 24 200 23 13 79 14 104 1z"/>
<path d="M6910 1970 c-25 -25 -26 -81 -2 -102 9 -9 46 -25 81 -35 70 -20 87
-37 78 -75 -14 -54 -125 -55 -149 -2 -6 13 -17 24 -25 24 -17 0 -16 -4 2 -40
35 -67 183 -55 201 16 11 42 -10 70 -63 89 -116 40 -143 66 -107 106 28 31 90
26 124 -11 15 -16 31 -30 34 -30 14 0 4 29 -19 54 -20 22 -32 26 -80 26 -42 0
-60 -5 -75 -20z"/>
</g>
</svg>
